<svg width="128" height="36" viewBox="0 0 128 36" fill="none" xmlns="http://www.w3.org/2000/svg">
<path d="M39.46 16V2.64H41.9V16H39.46ZM43.5116 16V6.6H45.7116V7.88C45.9916 7.42667 46.3849 7.06667 46.8916 6.8C47.3982 6.53333 48.0182 6.4 48.7516 6.4C49.8316 6.4 50.6716 6.70667 51.2716 7.32C51.8849 7.93333 52.1916 8.88 52.1916 10.16V16H49.9116V10.5C49.9116 9.76667 49.7582 9.23333 49.4516 8.9C49.1582 8.55333 48.7049 8.38 48.0916 8.38C47.3716 8.38 46.8049 8.62667 46.3916 9.12C45.9916 9.6 45.7916 10.2733 45.7916 11.14V16H43.5116ZM57.3891 16.12C56.3224 16.12 55.5424 15.88 55.0491 15.4C54.5557 14.92 54.3091 14.1733 54.3091 13.16V8.5H52.3291V6.6H54.3091V3.92H56.6091V6.6H58.9691V8.5H56.6091V12.96C56.6091 13.3733 56.7157 13.6867 56.9291 13.9C57.1424 14.1133 57.4624 14.22 57.8891 14.22C58.0491 14.22 58.2357 14.2133 58.4491 14.2C58.6757 14.1867 58.8491 14.1667 58.9691 14.14V15.94C58.7824 15.9933 58.5424 16.0333 58.2491 16.06C57.9691 16.1 57.6824 16.12 57.3891 16.12ZM64.5211 16.2C63.5611 16.2 62.6944 16.0133 61.9211 15.64C61.1478 15.2667 60.5278 14.72 60.0611 14C59.6078 13.2667 59.3811 12.3667 59.3811 11.3C59.3811 10.3 59.5944 9.43333 60.0211 8.7C60.4611 7.96667 61.0411 7.4 61.7611 7C62.4944 6.6 63.3144 6.4 64.2211 6.4C65.1544 6.4 65.9678 6.58 66.6611 6.94C67.3544 7.28667 67.8944 7.76667 68.2811 8.38C68.6678 8.99333 68.8611 9.69333 68.8611 10.48C68.8611 10.7067 68.8278 10.96 68.7611 11.24C68.6944 11.52 68.6078 11.7467 68.5011 11.92H61.7211C61.7878 12.44 61.9478 12.88 62.2011 13.24C62.4678 13.5867 62.8144 13.8533 63.2411 14.04C63.6678 14.2133 64.1678 14.3 64.7411 14.3C65.3278 14.3 65.8611 14.2133 66.3411 14.04C66.8211 13.8533 67.2744 13.6067 67.7011 13.3L68.4611 14.94C67.9144 15.3533 67.3078 15.6667 66.6411 15.88C65.9878 16.0933 65.2811 16.2 64.5211 16.2ZM61.7211 10.32H66.5011C66.5144 10.28 66.5211 10.2467 66.5211 10.22C66.5211 10.18 66.5211 10.1467 66.5211 10.12C66.5211 9.73333 66.4411 9.4 66.2811 9.12C66.1211 8.84 65.8744 8.62667 65.5411 8.48C65.2211 8.32 64.8011 8.24 64.2811 8.24C63.8544 8.24 63.4611 8.32667 63.1011 8.5C62.7544 8.66 62.4611 8.89333 62.2211 9.2C61.9811 9.50667 61.8144 9.88 61.7211 10.32ZM69.8725 16V2.64H72.1525V16H69.8725ZM73.6725 16V2.64H75.9525V16H73.6725ZM77.4725 16V6.6H79.7525V16H77.4725ZM78.6125 4.88C78.1992 4.88 77.8725 4.76 77.6325 4.52C77.3925 4.28 77.2725 3.97333 77.2725 3.6C77.2725 3.22667 77.3925 2.92667 77.6325 2.7C77.8725 2.46 78.1992 2.34 78.6125 2.34C79.0125 2.34 79.3325 2.46 79.5725 2.7C79.8258 2.94 79.9525 3.24667 79.9525 3.62C79.9525 3.99333 79.8258 4.3 79.5725 4.54C79.3325 4.76667 79.0125 4.88 78.6125 4.88ZM85.8125 16.2C84.8258 16.2 83.9525 16 83.1925 15.6C82.4458 15.1867 81.8525 14.6133 81.4125 13.88C80.9858 13.1467 80.7725 12.2867 80.7725 11.3C80.7725 10.3133 80.9858 9.45333 81.4125 8.72C81.8525 7.98667 82.4458 7.42 83.1925 7.02C83.9525 6.60667 84.8258 6.4 85.8125 6.4C86.4925 6.4 87.1125 6.5 87.6725 6.7C88.2325 6.88667 88.7458 7.16 89.2125 7.52L88.3925 9.24C87.9792 8.94667 87.5525 8.73333 87.1125 8.6C86.6858 8.45333 86.2525 8.38 85.8125 8.38C85.2658 8.38 84.7925 8.5 84.3925 8.74C83.9925 8.96667 83.6792 9.3 83.4525 9.74C83.2258 10.1667 83.1125 10.6867 83.1125 11.3C83.1125 11.9 83.2258 12.42 83.4525 12.86C83.6792 13.3 83.9925 13.64 84.3925 13.88C84.7925 14.1067 85.2658 14.22 85.8125 14.22C86.2525 14.22 86.6858 14.1533 87.1125 14.02C87.5525 13.8733 87.9792 13.6533 88.3925 13.36L89.2125 15.08C88.7458 15.44 88.2325 15.72 87.6725 15.92C87.1125 16.1067 86.4925 16.2 85.8125 16.2ZM93.5711 16.2C92.4911 16.2 91.6444 15.8933 91.0311 15.28C90.4311 14.6667 90.1311 13.72 90.1311 12.44V6.6H92.4111V12.1C92.4111 12.8333 92.5578 13.3733 92.8511 13.72C93.1578 14.0533 93.6178 14.22 94.2311 14.22C94.9511 14.22 95.5111 13.98 95.9111 13.5C96.3244 13.0067 96.5311 12.3267 96.5311 11.46V6.6H98.8111V16H96.6111V14.72C96.3311 15.1733 95.9378 15.5333 95.4311 15.8C94.9244 16.0667 94.3044 16.2 93.5711 16.2ZM100.337 16V6.6H102.537V8.14C102.791 7.56667 103.137 7.14667 103.577 6.88C104.017 6.61333 104.511 6.48 105.057 6.48C105.244 6.48 105.411 6.49333 105.557 6.52C105.704 6.53333 105.817 6.56 105.897 6.6V8.78C105.711 8.74 105.524 8.70667 105.337 8.68C105.151 8.65333 104.964 8.64 104.777 8.64C104.164 8.64 103.651 8.88667 103.237 9.38C102.824 9.86 102.617 10.5533 102.617 11.46V16H100.337ZM110.73 16.2C109.77 16.2 108.904 16.0133 108.13 15.64C107.357 15.2667 106.737 14.72 106.27 14C105.817 13.2667 105.59 12.3667 105.59 11.3C105.59 10.3 105.804 9.43333 106.23 8.7C106.67 7.96667 107.25 7.4 107.97 7C108.704 6.6 109.524 6.4 110.43 6.4C111.364 6.4 112.177 6.58 112.87 6.94C113.564 7.28667 114.104 7.76667 114.49 8.38C114.877 8.99333 115.07 9.69333 115.07 10.48C115.07 10.7067 115.037 10.96 114.97 11.24C114.904 11.52 114.817 11.7467 114.71 11.92H107.93C107.997 12.44 108.157 12.88 108.41 13.24C108.677 13.5867 109.024 13.8533 109.45 14.04C109.877 14.2133 110.377 14.3 110.95 14.3C111.537 14.3 112.07 14.2133 112.55 14.04C113.03 13.8533 113.484 13.6067 113.91 13.3L114.67 14.94C114.124 15.3533 113.517 15.6667 112.85 15.88C112.197 16.0933 111.49 16.2 110.73 16.2ZM107.93 10.32H112.71C112.724 10.28 112.73 10.2467 112.73 10.22C112.73 10.18 112.73 10.1467 112.73 10.12C112.73 9.73333 112.65 9.4 112.49 9.12C112.33 8.84 112.084 8.62667 111.75 8.48C111.43 8.32 111.01 8.24 110.49 8.24C110.064 8.24 109.67 8.32667 109.31 8.5C108.964 8.66 108.67 8.89333 108.43 9.2C108.19 9.50667 108.024 9.88 107.93 10.32ZM39.46 34V20.64H41.9V26.06H48.5V20.64H50.94V34H48.5V28.18H41.9V34H39.46ZM57.1945 34.2C56.2345 34.2 55.3679 34.0133 54.5945 33.64C53.8212 33.2667 53.2012 32.72 52.7345 32C52.2812 31.2667 52.0545 30.3667 52.0545 29.3C52.0545 28.3 52.2679 27.4333 52.6945 26.7C53.1345 25.9667 53.7145 25.4 54.4345 25C55.1679 24.6 55.9879 24.4 56.8945 24.4C57.8279 24.4 58.6412 24.58 59.3345 24.94C60.0279 25.2867 60.5679 25.7667 60.9545 26.38C61.3412 26.9933 61.5345 27.6933 61.5345 28.48C61.5345 28.7067 61.5012 28.96 61.4345 29.24C61.3679 29.52 61.2812 29.7467 61.1745 29.92H54.3945C54.4612 30.44 54.6212 30.88 54.8745 31.24C55.1412 31.5867 55.4879 31.8533 55.9145 32.04C56.3412 32.2133 56.8412 32.3 57.4145 32.3C58.0012 32.3 58.5345 32.2133 59.0145 32.04C59.4945 31.8533 59.9479 31.6067 60.3745 31.3L61.1345 32.94C60.5879 33.3533 59.9812 33.6667 59.3145 33.88C58.6612 34.0933 57.9545 34.2 57.1945 34.2ZM54.3945 28.32H59.1745C59.1879 28.28 59.1945 28.2467 59.1945 28.22C59.1945 28.18 59.1945 28.1467 59.1945 28.12C59.1945 27.7333 59.1145 27.4 58.9545 27.12C58.7945 26.84 58.5479 26.6267 58.2145 26.48C57.8945 26.32 57.4745 26.24 56.9545 26.24C56.5279 26.24 56.1345 26.3267 55.7745 26.5C55.4279 26.66 55.1345 26.8933 54.8945 27.2C54.6545 27.5067 54.4879 27.88 54.3945 28.32ZM65.5259 34.2C64.8593 34.2 64.2593 34.0933 63.7259 33.88C63.2059 33.6667 62.7926 33.3533 62.4859 32.94C62.1926 32.5133 62.0459 31.9933 62.0459 31.38C62.0459 30.7533 62.1993 30.2467 62.5059 29.86C62.8126 29.46 63.2259 29.1533 63.7459 28.94C64.2659 28.7133 64.8593 28.56 65.5259 28.48L68.7059 28.08C68.6259 27.4667 68.3726 27.02 67.9459 26.74C67.5326 26.46 67.0326 26.32 66.4459 26.32C66.0059 26.32 65.5459 26.4067 65.0659 26.58C64.5993 26.74 64.0793 27 63.5059 27.36L62.7259 25.68C63.2993 25.2667 63.9059 24.9533 64.5459 24.74C65.1993 24.5133 65.8659 24.4 66.5459 24.4C68.0126 24.4 69.1259 24.7267 69.8859 25.38C70.6459 26.02 71.0259 26.9867 71.0259 28.28V34H68.8259V32.78C68.4793 33.2733 68.0326 33.6333 67.4859 33.86C66.9393 34.0867 66.2859 34.2 65.5259 34.2ZM66.1659 32.36C66.7126 32.36 67.1726 32.2533 67.5459 32.04C67.9326 31.8267 68.2259 31.54 68.4259 31.18C68.6393 30.82 68.7459 30.4467 68.7459 30.06V29.7L66.2459 30.02C65.6193 30.1 65.1526 30.2333 64.8459 30.42C64.5393 30.6067 64.3859 30.8867 64.3859 31.26C64.3859 31.62 64.5393 31.8933 64.8459 32.08C65.1526 32.2667 65.5926 32.36 66.1659 32.36ZM72.5373 34V20.64H74.8173V34H72.5373ZM80.4773 34.12C79.4107 34.12 78.6307 33.88 78.1373 33.4C77.644 32.92 77.3973 32.1733 77.3973 31.16V26.5H75.4173V24.6H77.3973V21.92H79.6973V24.6H82.0573V26.5H79.6973V30.96C79.6973 31.3733 79.804 31.6867 80.0173 31.9C80.2307 32.1133 80.5507 32.22 80.9773 32.22C81.1373 32.22 81.324 32.2133 81.5373 32.2C81.764 32.1867 81.9373 32.1667 82.0573 32.14V33.94C81.8707 33.9933 81.6307 34.0333 81.3373 34.06C81.0573 34.1 80.7707 34.12 80.4773 34.12ZM82.9694 34V20.64H85.2494V25.74C85.5427 25.3267 85.936 25 86.4294 24.76C86.9227 24.52 87.516 24.4 88.2094 24.4C89.2894 24.4 90.1294 24.7067 90.7294 25.32C91.3427 25.9333 91.6494 26.88 91.6494 28.16V34H89.3694V28.5C89.3694 27.7667 89.216 27.2333 88.9094 26.9C88.616 26.5533 88.1627 26.38 87.5494 26.38C86.8294 26.38 86.2627 26.6267 85.8494 27.12C85.4494 27.6 85.2494 28.2733 85.2494 29.14V34H82.9694ZM97.7156 34.2C96.729 34.2 95.8556 34 95.0956 33.6C94.349 33.1867 93.7556 32.6133 93.3156 31.88C92.889 31.1467 92.6756 30.2867 92.6756 29.3C92.6756 28.3133 92.889 27.4533 93.3156 26.72C93.7556 25.9867 94.349 25.42 95.0956 25.02C95.8556 24.6067 96.729 24.4 97.7156 24.4C98.3956 24.4 99.0156 24.5 99.5756 24.7C100.136 24.8867 100.649 25.16 101.116 25.52L100.296 27.24C99.8823 26.9467 99.4556 26.7333 99.0156 26.6C98.589 26.4533 98.1556 26.38 97.7156 26.38C97.169 26.38 96.6956 26.5 96.2956 26.74C95.8956 26.9667 95.5823 27.3 95.3556 27.74C95.129 28.1667 95.0156 28.6867 95.0156 29.3C95.0156 29.9 95.129 30.42 95.3556 30.86C95.5823 31.3 95.8956 31.64 96.2956 31.88C96.6956 32.1067 97.169 32.22 97.7156 32.22C98.1556 32.22 98.589 32.1533 99.0156 32.02C99.4556 31.8733 99.8823 31.6533 100.296 31.36L101.116 33.08C100.649 33.44 100.136 33.72 99.5756 33.92C99.0156 34.1067 98.3956 34.2 97.7156 34.2ZM105.014 34.2C104.348 34.2 103.748 34.0933 103.214 33.88C102.694 33.6667 102.281 33.3533 101.974 32.94C101.681 32.5133 101.534 31.9933 101.534 31.38C101.534 30.7533 101.688 30.2467 101.994 29.86C102.301 29.46 102.714 29.1533 103.234 28.94C103.754 28.7133 104.348 28.56 105.014 28.48L108.194 28.08C108.114 27.4667 107.861 27.02 107.434 26.74C107.021 26.46 106.521 26.32 105.934 26.32C105.494 26.32 105.034 26.4067 104.554 26.58C104.088 26.74 103.568 27 102.994 27.36L102.214 25.68C102.788 25.2667 103.394 24.9533 104.034 24.74C104.688 24.5133 105.354 24.4 106.034 24.4C107.501 24.4 108.614 24.7267 109.374 25.38C110.134 26.02 110.514 26.9867 110.514 28.28V34H108.314V32.78C107.968 33.2733 107.521 33.6333 106.974 33.86C106.428 34.0867 105.774 34.2 105.014 34.2ZM105.654 32.36C106.201 32.36 106.661 32.2533 107.034 32.04C107.421 31.8267 107.714 31.54 107.914 31.18C108.128 30.82 108.234 30.4467 108.234 30.06V29.7L105.734 30.02C105.108 30.1 104.641 30.2333 104.334 30.42C104.028 30.6067 103.874 30.8867 103.874 31.26C103.874 31.62 104.028 31.8933 104.334 32.08C104.641 32.2667 105.081 32.36 105.654 32.36ZM112.026 34V24.6H114.226V26.14C114.479 25.5667 114.826 25.1467 115.266 24.88C115.706 24.6133 116.199 24.48 116.746 24.48C116.932 24.48 117.099 24.4933 117.246 24.52C117.392 24.5333 117.506 24.56 117.586 24.6V26.78C117.399 26.74 117.212 26.7067 117.026 26.68C116.839 26.6533 116.652 26.64 116.466 26.64C115.852 26.64 115.339 26.8867 114.926 27.38C114.512 27.86 114.306 28.5533 114.306 29.46V34H112.026ZM122.419 34.2C121.459 34.2 120.592 34.0133 119.819 33.64C119.045 33.2667 118.425 32.72 117.959 32C117.505 31.2667 117.279 30.3667 117.279 29.3C117.279 28.3 117.492 27.4333 117.919 26.7C118.359 25.9667 118.939 25.4 119.659 25C120.392 24.6 121.212 24.4 122.119 24.4C123.052 24.4 123.865 24.58 124.559 24.94C125.252 25.2867 125.792 25.7667 126.179 26.38C126.565 26.9933 126.759 27.6933 126.759 28.48C126.759 28.7067 126.725 28.96 126.659 29.24C126.592 29.52 126.505 29.7467 126.399 29.92H119.619C119.685 30.44 119.845 30.88 120.099 31.24C120.365 31.5867 120.712 31.8533 121.139 32.04C121.565 32.2133 122.065 32.3 122.639 32.3C123.225 32.3 123.759 32.2133 124.239 32.04C124.719 31.8533 125.172 31.6067 125.599 31.3L126.359 32.94C125.812 33.3533 125.205 33.6667 124.539 33.88C123.885 34.0933 123.179 34.2 122.419 34.2ZM119.619 28.32H124.399C124.412 28.28 124.419 28.2467 124.419 28.22C124.419 28.18 124.419 28.1467 124.419 28.12C124.419 27.7333 124.339 27.4 124.179 27.12C124.019 26.84 123.772 26.6267 123.439 26.48C123.119 26.32 122.699 26.24 122.179 26.24C121.752 26.24 121.359 26.3267 120.999 26.5C120.652 26.66 120.359 26.8933 120.119 27.2C119.879 27.5067 119.712 27.88 119.619 28.32Z" fill="#329DFA"/>
<rect x="27" y="1" width="6" height="6" rx="3" fill="#329DFA"/>
<rect x="27" y="10" width="6" height="6" rx="3" fill="#329DFA"/>
<rect x="18" y="10" width="6" height="6" rx="3" fill="#329DFA"/>
<rect x="27" y="19" width="6" height="6" rx="3" fill="#329DFA"/>
<rect x="18" y="19" width="6" height="6" rx="3" fill="#329DFA"/>
<rect x="9" y="19" width="6" height="6" rx="3" fill="#329DFA"/>
<rect x="27" y="28" width="6" height="6" rx="3" fill="#329DFA"/>
<rect x="18" y="28" width="6" height="6" rx="3" fill="#329DFA"/>
<rect x="9" y="28" width="6" height="6" rx="3" fill="#329DFA"/>
<rect y="28" width="6" height="6" rx="3" fill="#329DFA"/>
</svg>
