<svg width="117" height="49" viewBox="0 0 117 49" fill="none" xmlns="http://www.w3.org/2000/svg">
<path d="M23 37.5C23 43.8513 17.8513 49 11.5 49C5.14873 49 0 43.8513 0 37.5V27H23V37.5Z" fill="#329DFA"/>
<rect y="24" width="23" height="2" fill="#329DFA"/>
<rect width="5" height="5" rx="2" transform="matrix(-1 0 0 1 23 18)" fill="#329DFA"/>
<rect width="5" height="5" rx="2" transform="matrix(-1 0 0 1 23 12)" fill="#329DFA"/>
<rect width="5" height="5" rx="2" transform="matrix(-1 0 0 1 23 6)" fill="#329DFA"/>
<rect width="5" height="5" rx="2" transform="matrix(-1 0 0 1 23 0)" fill="#329DFA"/>
<rect width="5" height="5" rx="2" transform="matrix(-1 0 0 1 17 18)" fill="#329DFA"/>
<rect width="5" height="5" rx="2" transform="matrix(-1 0 0 1 17 12)" fill="#329DFA"/>
<rect width="5" height="5" rx="2" transform="matrix(-1 0 0 1 17 6)" fill="#329DFA"/>
<rect width="5" height="5" rx="2" transform="matrix(-1 0 0 1 11 18)" fill="#329DFA"/>
<rect width="5" height="5" rx="2" transform="matrix(-1 0 0 1 11 12)" fill="#329DFA"/>
<rect width="5" height="5" rx="2" transform="matrix(-1 0 0 1 5 18)" fill="#329DFA"/>
<path d="M28.46 22.5V9.14H30.9V22.5H28.46ZM32.5116 22.5V13.1H34.7116V14.38C34.9916 13.9267 35.3849 13.5667 35.8916 13.3C36.3982 13.0333 37.0182 12.9 37.7516 12.9C38.8316 12.9 39.6716 13.2067 40.2716 13.82C40.8849 14.4333 41.1916 15.38 41.1916 16.66V22.5H38.9116V17C38.9116 16.2667 38.7582 15.7333 38.4516 15.4C38.1582 15.0533 37.7049 14.88 37.0916 14.88C36.3716 14.88 35.8049 15.1267 35.3916 15.62C34.9916 16.1 34.7916 16.7733 34.7916 17.64V22.5H32.5116ZM46.3891 22.62C45.3224 22.62 44.5424 22.38 44.0491 21.9C43.5557 21.42 43.3091 20.6733 43.3091 19.66V15H41.3291V13.1H43.3091V10.42H45.6091V13.1H47.9691V15H45.6091V19.46C45.6091 19.8733 45.7157 20.1867 45.9291 20.4C46.1424 20.6133 46.4624 20.72 46.8891 20.72C47.0491 20.72 47.2357 20.7133 47.4491 20.7C47.6757 20.6867 47.8491 20.6667 47.9691 20.64V22.44C47.7824 22.4933 47.5424 22.5333 47.2491 22.56C46.9691 22.6 46.6824 22.62 46.3891 22.62ZM53.5211 22.7C52.5611 22.7 51.6944 22.5133 50.9211 22.14C50.1478 21.7667 49.5278 21.22 49.0611 20.5C48.6078 19.7667 48.3811 18.8667 48.3811 17.8C48.3811 16.8 48.5944 15.9333 49.0211 15.2C49.4611 14.4667 50.0411 13.9 50.7611 13.5C51.4944 13.1 52.3144 12.9 53.2211 12.9C54.1544 12.9 54.9678 13.08 55.6611 13.44C56.3544 13.7867 56.8944 14.2667 57.2811 14.88C57.6678 15.4933 57.8611 16.1933 57.8611 16.98C57.8611 17.2067 57.8278 17.46 57.7611 17.74C57.6944 18.02 57.6078 18.2467 57.5011 18.42H50.7211C50.7878 18.94 50.9478 19.38 51.2011 19.74C51.4678 20.0867 51.8144 20.3533 52.2411 20.54C52.6678 20.7133 53.1678 20.8 53.7411 20.8C54.3278 20.8 54.8611 20.7133 55.3411 20.54C55.8211 20.3533 56.2744 20.1067 56.7011 19.8L57.4611 21.44C56.9144 21.8533 56.3078 22.1667 55.6411 22.38C54.9878 22.5933 54.2811 22.7 53.5211 22.7ZM50.7211 16.82H55.5011C55.5144 16.78 55.5211 16.7467 55.5211 16.72C55.5211 16.68 55.5211 16.6467 55.5211 16.62C55.5211 16.2333 55.4411 15.9 55.2811 15.62C55.1211 15.34 54.8744 15.1267 54.5411 14.98C54.2211 14.82 53.8011 14.74 53.2811 14.74C52.8544 14.74 52.4611 14.8267 52.1011 15C51.7544 15.16 51.4611 15.3933 51.2211 15.7C50.9811 16.0067 50.8144 16.38 50.7211 16.82ZM58.8725 22.5V9.14H61.1525V22.5H58.8725ZM62.6725 22.5V9.14H64.9525V22.5H62.6725ZM66.4725 22.5V13.1H68.7525V22.5H66.4725ZM67.6125 11.38C67.1992 11.38 66.8725 11.26 66.6325 11.02C66.3925 10.78 66.2725 10.4733 66.2725 10.1C66.2725 9.72667 66.3925 9.42667 66.6325 9.2C66.8725 8.96 67.1992 8.84 67.6125 8.84C68.0125 8.84 68.3325 8.96 68.5725 9.2C68.8258 9.44 68.9525 9.74667 68.9525 10.12C68.9525 10.4933 68.8258 10.8 68.5725 11.04C68.3325 11.2667 68.0125 11.38 67.6125 11.38ZM74.8125 22.7C73.8258 22.7 72.9525 22.5 72.1925 22.1C71.4458 21.6867 70.8525 21.1133 70.4125 20.38C69.9858 19.6467 69.7725 18.7867 69.7725 17.8C69.7725 16.8133 69.9858 15.9533 70.4125 15.22C70.8525 14.4867 71.4458 13.92 72.1925 13.52C72.9525 13.1067 73.8258 12.9 74.8125 12.9C75.4925 12.9 76.1125 13 76.6725 13.2C77.2325 13.3867 77.7458 13.66 78.2125 14.02L77.3925 15.74C76.9792 15.4467 76.5525 15.2333 76.1125 15.1C75.6858 14.9533 75.2525 14.88 74.8125 14.88C74.2658 14.88 73.7925 15 73.3925 15.24C72.9925 15.4667 72.6792 15.8 72.4525 16.24C72.2258 16.6667 72.1125 17.1867 72.1125 17.8C72.1125 18.4 72.2258 18.92 72.4525 19.36C72.6792 19.8 72.9925 20.14 73.3925 20.38C73.7925 20.6067 74.2658 20.72 74.8125 20.72C75.2525 20.72 75.6858 20.6533 76.1125 20.52C76.5525 20.3733 76.9792 20.1533 77.3925 19.86L78.2125 21.58C77.7458 21.94 77.2325 22.22 76.6725 22.42C76.1125 22.6067 75.4925 22.7 74.8125 22.7ZM82.5711 22.7C81.4911 22.7 80.6444 22.3933 80.0311 21.78C79.4311 21.1667 79.1311 20.22 79.1311 18.94V13.1H81.4111V18.6C81.4111 19.3333 81.5578 19.8733 81.8511 20.22C82.1578 20.5533 82.6178 20.72 83.2311 20.72C83.9511 20.72 84.5111 20.48 84.9111 20C85.3244 19.5067 85.5311 18.8267 85.5311 17.96V13.1H87.8111V22.5H85.6111V21.22C85.3311 21.6733 84.9378 22.0333 84.4311 22.3C83.9244 22.5667 83.3044 22.7 82.5711 22.7ZM89.3373 22.5V13.1H91.5373V14.64C91.7907 14.0667 92.1373 13.6467 92.5773 13.38C93.0173 13.1133 93.5107 12.98 94.0573 12.98C94.244 12.98 94.4107 12.9933 94.5573 13.02C94.704 13.0333 94.8173 13.06 94.8973 13.1V15.28C94.7107 15.24 94.524 15.2067 94.3373 15.18C94.1507 15.1533 93.964 15.14 93.7773 15.14C93.164 15.14 92.6507 15.3867 92.2373 15.88C91.824 16.36 91.6173 17.0533 91.6173 17.96V22.5H89.3373ZM99.7305 22.7C98.7705 22.7 97.9038 22.5133 97.1305 22.14C96.3571 21.7667 95.7371 21.22 95.2705 20.5C94.8171 19.7667 94.5905 18.8667 94.5905 17.8C94.5905 16.8 94.8038 15.9333 95.2305 15.2C95.6705 14.4667 96.2505 13.9 96.9705 13.5C97.7038 13.1 98.5238 12.9 99.4305 12.9C100.364 12.9 101.177 13.08 101.87 13.44C102.564 13.7867 103.104 14.2667 103.49 14.88C103.877 15.4933 104.07 16.1933 104.07 16.98C104.07 17.2067 104.037 17.46 103.97 17.74C103.904 18.02 103.817 18.2467 103.71 18.42H96.9305C96.9971 18.94 97.1571 19.38 97.4105 19.74C97.6771 20.0867 98.0238 20.3533 98.4505 20.54C98.8771 20.7133 99.3771 20.8 99.9505 20.8C100.537 20.8 101.07 20.7133 101.55 20.54C102.03 20.3533 102.484 20.1067 102.91 19.8L103.67 21.44C103.124 21.8533 102.517 22.1667 101.85 22.38C101.197 22.5933 100.49 22.7 99.7305 22.7ZM96.9305 16.82H101.71C101.724 16.78 101.73 16.7467 101.73 16.72C101.73 16.68 101.73 16.6467 101.73 16.62C101.73 16.2333 101.65 15.9 101.49 15.62C101.33 15.34 101.084 15.1267 100.75 14.98C100.43 14.82 100.01 14.74 99.4905 14.74C99.0638 14.74 98.6705 14.8267 98.3105 15C97.9638 15.16 97.6705 15.3933 97.4305 15.7C97.1905 16.0067 97.0238 16.38 96.9305 16.82ZM28.46 40.5V27.14H30.9V32.56H37.5V27.14H39.94V40.5H37.5V34.68H30.9V40.5H28.46ZM46.1945 40.7C45.2345 40.7 44.3679 40.5133 43.5945 40.14C42.8212 39.7667 42.2012 39.22 41.7345 38.5C41.2812 37.7667 41.0545 36.8667 41.0545 35.8C41.0545 34.8 41.2679 33.9333 41.6945 33.2C42.1345 32.4667 42.7145 31.9 43.4345 31.5C44.1679 31.1 44.9879 30.9 45.8945 30.9C46.8279 30.9 47.6412 31.08 48.3345 31.44C49.0279 31.7867 49.5679 32.2667 49.9545 32.88C50.3412 33.4933 50.5345 34.1933 50.5345 34.98C50.5345 35.2067 50.5012 35.46 50.4345 35.74C50.3679 36.02 50.2812 36.2467 50.1745 36.42H43.3945C43.4612 36.94 43.6212 37.38 43.8745 37.74C44.1412 38.0867 44.4879 38.3533 44.9145 38.54C45.3412 38.7133 45.8412 38.8 46.4145 38.8C47.0012 38.8 47.5345 38.7133 48.0145 38.54C48.4945 38.3533 48.9479 38.1067 49.3745 37.8L50.1345 39.44C49.5879 39.8533 48.9812 40.1667 48.3145 40.38C47.6612 40.5933 46.9545 40.7 46.1945 40.7ZM43.3945 34.82H48.1745C48.1879 34.78 48.1945 34.7467 48.1945 34.72C48.1945 34.68 48.1945 34.6467 48.1945 34.62C48.1945 34.2333 48.1145 33.9 47.9545 33.62C47.7945 33.34 47.5479 33.1267 47.2145 32.98C46.8945 32.82 46.4745 32.74 45.9545 32.74C45.5279 32.74 45.1345 32.8267 44.7745 33C44.4279 33.16 44.1345 33.3933 43.8945 33.7C43.6545 34.0067 43.4879 34.38 43.3945 34.82ZM54.5259 40.7C53.8593 40.7 53.2593 40.5933 52.7259 40.38C52.2059 40.1667 51.7926 39.8533 51.4859 39.44C51.1926 39.0133 51.0459 38.4933 51.0459 37.88C51.0459 37.2533 51.1993 36.7467 51.5059 36.36C51.8126 35.96 52.2259 35.6533 52.7459 35.44C53.2659 35.2133 53.8593 35.06 54.5259 34.98L57.7059 34.58C57.6259 33.9667 57.3726 33.52 56.9459 33.24C56.5326 32.96 56.0326 32.82 55.4459 32.82C55.0059 32.82 54.5459 32.9067 54.0659 33.08C53.5993 33.24 53.0793 33.5 52.5059 33.86L51.7259 32.18C52.2993 31.7667 52.9059 31.4533 53.5459 31.24C54.1993 31.0133 54.8659 30.9 55.5459 30.9C57.0126 30.9 58.1259 31.2267 58.8859 31.88C59.6459 32.52 60.0259 33.4867 60.0259 34.78V40.5H57.8259V39.28C57.4793 39.7733 57.0326 40.1333 56.4859 40.36C55.9393 40.5867 55.2859 40.7 54.5259 40.7ZM55.1659 38.86C55.7126 38.86 56.1726 38.7533 56.5459 38.54C56.9326 38.3267 57.2259 38.04 57.4259 37.68C57.6393 37.32 57.7459 36.9467 57.7459 36.56V36.2L55.2459 36.52C54.6193 36.6 54.1526 36.7333 53.8459 36.92C53.5393 37.1067 53.3859 37.3867 53.3859 37.76C53.3859 38.12 53.5393 38.3933 53.8459 38.58C54.1526 38.7667 54.5926 38.86 55.1659 38.86ZM61.5373 40.5V27.14H63.8173V40.5H61.5373ZM69.4773 40.62C68.4107 40.62 67.6307 40.38 67.1373 39.9C66.644 39.42 66.3973 38.6733 66.3973 37.66V33H64.4173V31.1H66.3973V28.42H68.6973V31.1H71.0573V33H68.6973V37.46C68.6973 37.8733 68.804 38.1867 69.0173 38.4C69.2307 38.6133 69.5507 38.72 69.9773 38.72C70.1373 38.72 70.324 38.7133 70.5373 38.7C70.764 38.6867 70.9373 38.6667 71.0573 38.64V40.44C70.8707 40.4933 70.6307 40.5333 70.3373 40.56C70.0573 40.6 69.7707 40.62 69.4773 40.62ZM71.9694 40.5V27.14H74.2494V32.24C74.5427 31.8267 74.936 31.5 75.4294 31.26C75.9227 31.02 76.516 30.9 77.2094 30.9C78.2894 30.9 79.1294 31.2067 79.7294 31.82C80.3427 32.4333 80.6494 33.38 80.6494 34.66V40.5H78.3694V35C78.3694 34.2667 78.216 33.7333 77.9094 33.4C77.616 33.0533 77.1627 32.88 76.5494 32.88C75.8294 32.88 75.2627 33.1267 74.8494 33.62C74.4494 34.1 74.2494 34.7733 74.2494 35.64V40.5H71.9694ZM86.7156 40.7C85.729 40.7 84.8556 40.5 84.0956 40.1C83.349 39.6867 82.7556 39.1133 82.3156 38.38C81.889 37.6467 81.6756 36.7867 81.6756 35.8C81.6756 34.8133 81.889 33.9533 82.3156 33.22C82.7556 32.4867 83.349 31.92 84.0956 31.52C84.8556 31.1067 85.729 30.9 86.7156 30.9C87.3956 30.9 88.0156 31 88.5756 31.2C89.1356 31.3867 89.649 31.66 90.1156 32.02L89.2956 33.74C88.8823 33.4467 88.4556 33.2333 88.0156 33.1C87.589 32.9533 87.1556 32.88 86.7156 32.88C86.169 32.88 85.6956 33 85.2956 33.24C84.8956 33.4667 84.5823 33.8 84.3556 34.24C84.129 34.6667 84.0156 35.1867 84.0156 35.8C84.0156 36.4 84.129 36.92 84.3556 37.36C84.5823 37.8 84.8956 38.14 85.2956 38.38C85.6956 38.6067 86.169 38.72 86.7156 38.72C87.1556 38.72 87.589 38.6533 88.0156 38.52C88.4556 38.3733 88.8823 38.1533 89.2956 37.86L90.1156 39.58C89.649 39.94 89.1356 40.22 88.5756 40.42C88.0156 40.6067 87.3956 40.7 86.7156 40.7ZM94.0142 40.7C93.3476 40.7 92.7476 40.5933 92.2142 40.38C91.6942 40.1667 91.2809 39.8533 90.9742 39.44C90.6809 39.0133 90.5342 38.4933 90.5342 37.88C90.5342 37.2533 90.6876 36.7467 90.9942 36.36C91.3009 35.96 91.7142 35.6533 92.2342 35.44C92.7542 35.2133 93.3476 35.06 94.0142 34.98L97.1942 34.58C97.1142 33.9667 96.8609 33.52 96.4342 33.24C96.0209 32.96 95.5209 32.82 94.9342 32.82C94.4942 32.82 94.0342 32.9067 93.5542 33.08C93.0876 33.24 92.5676 33.5 91.9942 33.86L91.2142 32.18C91.7876 31.7667 92.3942 31.4533 93.0342 31.24C93.6876 31.0133 94.3542 30.9 95.0342 30.9C96.5009 30.9 97.6142 31.2267 98.3742 31.88C99.1342 32.52 99.5142 33.4867 99.5142 34.78V40.5H97.3142V39.28C96.9676 39.7733 96.5209 40.1333 95.9742 40.36C95.4276 40.5867 94.7742 40.7 94.0142 40.7ZM94.6542 38.86C95.2009 38.86 95.6609 38.7533 96.0342 38.54C96.4209 38.3267 96.7142 38.04 96.9142 37.68C97.1276 37.32 97.2342 36.9467 97.2342 36.56V36.2L94.7342 36.52C94.1076 36.6 93.6409 36.7333 93.3342 36.92C93.0276 37.1067 92.8742 37.3867 92.8742 37.76C92.8742 38.12 93.0276 38.3933 93.3342 38.58C93.6409 38.7667 94.0809 38.86 94.6542 38.86ZM101.026 40.5V31.1H103.226V32.64C103.479 32.0667 103.826 31.6467 104.266 31.38C104.706 31.1133 105.199 30.98 105.746 30.98C105.932 30.98 106.099 30.9933 106.246 31.02C106.392 31.0333 106.506 31.06 106.586 31.1V33.28C106.399 33.24 106.212 33.2067 106.026 33.18C105.839 33.1533 105.652 33.14 105.466 33.14C104.852 33.14 104.339 33.3867 103.926 33.88C103.512 34.36 103.306 35.0533 103.306 35.96V40.5H101.026ZM111.419 40.7C110.459 40.7 109.592 40.5133 108.819 40.14C108.045 39.7667 107.425 39.22 106.959 38.5C106.505 37.7667 106.279 36.8667 106.279 35.8C106.279 34.8 106.492 33.9333 106.919 33.2C107.359 32.4667 107.939 31.9 108.659 31.5C109.392 31.1 110.212 30.9 111.119 30.9C112.052 30.9 112.865 31.08 113.559 31.44C114.252 31.7867 114.792 32.2667 115.179 32.88C115.565 33.4933 115.759 34.1933 115.759 34.98C115.759 35.2067 115.725 35.46 115.659 35.74C115.592 36.02 115.505 36.2467 115.399 36.42H108.619C108.685 36.94 108.845 37.38 109.099 37.74C109.365 38.0867 109.712 38.3533 110.139 38.54C110.565 38.7133 111.065 38.8 111.639 38.8C112.225 38.8 112.759 38.7133 113.239 38.54C113.719 38.3533 114.172 38.1067 114.599 37.8L115.359 39.44C114.812 39.8533 114.205 40.1667 113.539 40.38C112.885 40.5933 112.179 40.7 111.419 40.7ZM108.619 34.82H113.399C113.412 34.78 113.419 34.7467 113.419 34.72C113.419 34.68 113.419 34.6467 113.419 34.62C113.419 34.2333 113.339 33.9 113.179 33.62C113.019 33.34 112.772 33.1267 112.439 32.98C112.119 32.82 111.699 32.74 111.179 32.74C110.752 32.74 110.359 32.8267 109.999 33C109.652 33.16 109.359 33.3933 109.119 33.7C108.879 34.0067 108.712 34.38 108.619 34.82Z" fill="#329DFA"/>
</svg>
