<svg width="40" height="50" viewBox="0 0 40 50" fill="none" xmlns="http://www.w3.org/2000/svg">
<g clipPath="url(#clip0_839_1351)">
<g clipPath="url(#clip1_839_1351)">
<mask id="mask0_839_1351" style="mask-type:luminance" maskUnits="userSpaceOnUse" x="0" y="0" width="40" height="50">
<path d="M39.9152 0H0.0847168V50H39.9152V0Z" fill="white"/>
</mask>
<g mask="url(#mask0_839_1351)">
<path d="M11.8422 7.3584H7.55591V31.8864H11.8422V7.3584Z" fill="#13AA65"/>
<path d="M32.4465 7.3584H28.1602V31.8864H32.4465V7.3584Z" fill="#13AA65"/>
<path d="M7.74951 7.3584V11.6301H32.3613V7.3584H7.74951Z" fill="#13AA65"/>
<path d="M22.8506 46.6193L20.0023 50L0.0847168 36.0364L2.93535 32.6558L22.8506 46.6193Z" fill="#13AA65"/>
<path d="M17.1494 46.6193L20.0001 50L39.9153 36.0364L37.067 32.6558L17.1494 46.6193Z" fill="#13AA65"/>
<path d="M25.4547 19.1862C25.4547 22.1925 23.0096 24.6292 19.9931 24.6292C19.0068 24.6292 18.0804 24.3697 17.283 23.9127C15.64 22.9733 14.5315 21.2095 14.5315 19.1862C14.5315 16.1799 16.9766 13.7432 19.9931 13.7432C23.0096 13.7432 25.4547 16.1799 25.4547 19.1862Z" fill="#13AA65"/>
<path d="M22.7884 37.5522L19.9885 40.9259L7.55591 31.8955L10.3558 28.5195L22.7884 37.5522Z" fill="#13AA65"/>
<path d="M17.2139 37.5522L20.0115 40.9259L32.4441 31.8955L29.6465 28.5195L17.2139 37.5522Z" fill="#13AA65"/>
<path d="M13.9646 33.0372L20.0231 18.4995L26.0193 33.0372L19.9747 39.0613L13.9646 33.0372Z" fill="#13AA65"/>
<path d="M0.199951 0V4.27174H39.9152V0H0.199951Z" fill="#13AA65"/>
<path d="M4.48408 16.7792L0.197754 19.6225V0H4.48408V16.7792Z" fill="#13AA65"/>
<path d="M39.9153 16.7792L35.6289 19.6225V0H39.9153V16.7792Z" fill="#13AA65"/>
<path d="M39.9153 35.9925H35.6289V23.825L39.9153 20.7153V35.9925Z" fill="#13AA65"/>
<path d="M4.37104 35.9925H0.0847168V23.825L4.37104 20.7153V35.9925Z" fill="#13AA65"/>
</g>
</g>
</g>
<defs>
<clipPath id="clip0_839_1351">
<rect width="40" height="50" fill="white"/>
</clipPath>
<clipPath id="clip1_839_1351">
<rect width="39.8305" height="50" fill="white" transform="translate(0.0847168)"/>
</clipPath>
</defs>
</svg>
